<svg xmlns="http://www.w3.org/2000/svg" viewBox="0 0 420 200" font-family="monospace">
  <rect width="420" height="200" fill="#1a1c1e"/>
  <g stroke="#3a4148" stroke-width="1" opacity="0.5">
    <path d="M70 0v200M140 0v200M210 0v200M280 0v200M350 0v200M0 50h420M0 100h420M0 150h420"/>
  </g>
  <!-- framework core -->
  <rect x="176" y="36" width="68" height="34" fill="none" stroke="#f5a623" stroke-width="2"/>
  <text x="188" y="57" fill="#f5a623" font-size="11">core</text>
  <!-- ten shipped titles -->
  <g fill="none" stroke="#565e66" stroke-width="1.5">
    <rect x="52" y="118" width="42" height="30"/><rect x="106" y="118" width="42" height="30"/>
    <rect x="160" y="118" width="42" height="30"/><rect x="214" y="118" width="42" height="30"/>
    <rect x="268" y="118" width="42" height="30"/><rect x="322" y="118" width="42" height="30"/>
  </g>
  <g stroke="#3a4148" stroke-width="1.5" fill="none">
    <path d="M210 70v20M210 90H73v28M210 90h-83v28M181 90v28M210 90h29v28M210 90h83v28M210 90h133v28"/>
  </g>
  <g fill="#4ade9c" font-size="9">
    <text x="58" y="137">v1.0</text><text x="112" y="137">v1.1</text><text x="166" y="137">v2.0</text>
    <text x="220" y="137">v2.4</text><text x="274" y="137">v3.0</text><text x="326" y="137">+5</text>
  </g>
  <text x="14" y="186" fill="#9aa0a6" font-size="10">one_framework :: 10+_titles :: ci/cd -2h/day</text>
  <text x="14" y="24" fill="#4ade9c" font-size="10">build pipeline green</text>
</svg>
