<svg xmlns="http://www.w3.org/2000/svg" viewBox="0 0 420 200" font-family="monospace">
  <rect width="420" height="200" fill="#1a1c1e"/>
  <g stroke="#3a4148" stroke-width="1" opacity="0.5">
    <path d="M70 0v200M140 0v200M210 0v200M280 0v200M350 0v200M0 50h420M0 100h420M0 150h420"/>
  </g>
  <!-- ghost (network state, lagging) -->
  <g opacity="0.25" stroke="#9aa0a6" fill="none" stroke-width="2">
    <rect x="150" y="78" width="44" height="26" rx="4" transform="rotate(-8 172 91)"/>
  </g>
  <!-- held object -->
  <rect x="164" y="84" width="44" height="26" rx="4" fill="none" stroke="#f5a623" stroke-width="2.5"/>
  <!-- hand anchors -->
  <circle cx="110" cy="70" r="10" fill="none" stroke="#e8eaed" stroke-width="2.5"/>
  <circle cx="300" cy="130" r="10" fill="none" stroke="#e8eaed" stroke-width="2.5"/>
  <!-- constraints -->
  <g stroke="#f5a623" stroke-width="1.5" stroke-dasharray="4 4" fill="none">
    <path d="M119 76 164 92M291 124 208 104"/>
  </g>
  <g fill="#4ade9c" font-size="10">
    <text x="96" y="48">hand_L</text>
    <text x="286" y="158">hand_R</text>
  </g>
  <text x="14" y="186" fill="#9aa0a6" font-size="10">joint_constraints :: networked_physics :: zero_jitter</text>
  <text x="14" y="24" fill="#4ade9c" font-size="10">latency compensated</text>
</svg>
