<svg xmlns="http://www.w3.org/2000/svg" viewBox="0 0 420 200" font-family="monospace">
  <rect width="420" height="200" fill="#1a1c1e"/>
  <g stroke="#3a4148" stroke-width="1" opacity="0.5">
    <path d="M70 0v200M140 0v200M210 0v200M280 0v200M350 0v200M0 50h420M0 100h420M0 150h420"/>
  </g>
  <!-- message bubbles: webhooks in -->
  <g fill="none" stroke="#565e66" stroke-width="1.5">
    <path d="M40 56h96v26h-84l-8 8v-8h-4z"/>
    <path d="M40 96h120v26h-108l-8 8v-8h-4z"/>
  </g>
  <text x="50" y="73" fill="#9aa0a6" font-size="10">/build farm_02</text>
  <text x="50" y="113" fill="#9aa0a6" font-size="10">/collect 4,120 coins</text>
  <!-- server block -->
  <rect x="236" y="60" width="140" height="70" fill="none" stroke="#f5a623" stroke-width="2"/>
  <text x="248" y="82" fill="#f5a623" font-size="10">php + mysql</text>
  <text x="248" y="98" fill="#9aa0a6" font-size="10">cron */5 * * * *</text>
  <text x="248" y="114" fill="#4ade9c" font-size="10">400k users · 1k ccu</text>
  <g stroke="#f5a623" stroke-width="1.5" stroke-dasharray="4 4" fill="none">
    <path d="M160 69h76M184 109h52"/>
  </g>
  <text x="14" y="186" fill="#9aa0a6" font-size="10">async_multiplayer :: webhooks :: built_as_a_student</text>
  <text x="14" y="24" fill="#4ade9c" font-size="10">uptime nominal</text>
</svg>
