<svg xmlns="http://www.w3.org/2000/svg" viewBox="0 0 1280 720" font-family="monospace">
  <rect width="1280" height="720" fill="#1a1c1e"/>
  <g stroke="#3a4148" stroke-width="1" opacity="0.6">
    <path d="M128 0v720M256 0v720M384 0v720M512 0v720M640 0v720M768 0v720M896 0v720M1024 0v720M1152 0v720M0 90h1280M0 180h1280M0 270h1280M0 360h1280M0 450h1280M0 540h1280M0 630h1280"/>
  </g>
  <circle cx="640" cy="330" r="54" fill="none" stroke="#f5a623" stroke-width="3"/>
  <path d="M622 302l54 28-54 28z" fill="#f5a623"/>
  <text x="640" y="440" fill="#e8eaed" font-size="30" text-anchor="middle">showreel — placeholder loop</text>
  <text x="640" y="480" fill="#9aa0a6" font-size="18" text-anchor="middle">real capture pending: IK hands · streaming flythrough · VR combat · agents · tooling</text>
  <text x="40" y="688" fill="#4ade9c" font-size="16">rec ● simulation feed</text>
</svg>
